<?xml version="1.0" encoding="iso-8859-1"?>
<!-- Generator: Adobe Illustrator 16.0.0, SVG Export Plug-In . SVG Version: 6.00 Build 0)  -->
<!DOCTYPE svg PUBLIC "-//W3C//DTD SVG 1.1//EN" "http://www.w3.org/Graphics/SVG/1.1/DTD/svg11.dtd">

<svg version="1.1" xmlns="http://www.w3.org/2000/svg" xmlns:xlink="http://www.w3.org/1999/xlink" x="0px" y="0px" width="16px" height="16px" viewBox="0 0 16 16" style="enable-background: new 0 0 16 16; fill: #e3e3e3;" xml:space="preserve">
	<g id="_x31_3-interface_-_arrow_left" style="enable-background: new;">
		<path d="M10.357,3.643c-0.195-0.194-0.51-0.194-0.703,0L5.663,7.634C5.657,7.64,5.648,7.637,5.643,7.643
		C5.545,7.74,5.499,7.87,5.5,7.999C5.499,8.128,5.545,8.257,5.643,8.355C5.648,8.36,5.657,8.358,5.662,8.363l3.992,3.992
		c0.193,0.194,0.508,0.194,0.703,0c0.193-0.194,0.193-0.509,0-0.702L6.702,7.999l3.655-3.655C10.551,4.15,10.551,3.836,10.357,3.643
		z M8-0.001c-4.418,0-8,3.582-8,8s3.582,8,8,8c4.418,0,8-3.582,8-8S12.418-0.001,8-0.001z M8,14.999c-3.866,0-7-3.134-7-7
		s3.134-7,7-7c3.865,0,7,3.134,7,7S11.865,14.999,8,14.999z"/>
	</g>
</svg>
