<?xml version="1.0" encoding="iso-8859-1"?>
<!-- Generator: Adobe Illustrator 16.0.0, SVG Export Plug-In . SVG Version: 6.00 Build 0)  -->
<!DOCTYPE svg PUBLIC "-//W3C//DTD SVG 1.1//EN" "http://www.w3.org/Graphics/SVG/1.1/DTD/svg11.dtd">

<svg version="1.1" xmlns="http://www.w3.org/2000/svg" xmlns:xlink="http://www.w3.org/1999/xlink" x="0px" y="0px" width="16px" height="16px" viewBox="0 0 16 16" style="enable-background:new 0 0 16 16; fill: #e3e3e3;" xml:space="preserve">
<g id="_x31_5-interface_-_arrow_right" style="enable-background: new;">
	<path d="M8-0.001c-4.418,0-8,3.582-8,8s3.582,8,8,8c4.418,0,8-3.582,8-8S12.418-0.001,8-0.001z M8,14.999c-3.866,0-7-3.134-7-7
		s3.134-7,7-7c3.865,0,7,3.134,7,7S11.865,14.999,8,14.999z M10.338,7.634L6.346,3.643c-0.194-0.194-0.508-0.194-0.703,0
		c-0.194,0.193-0.194,0.508,0,0.701l3.654,3.655l-3.654,3.654c-0.194,0.193-0.194,0.508,0,0.702c0.194,0.194,0.508,0.194,0.703,0
		l3.992-3.992c0.006-0.005,0.014-0.003,0.02-0.008c0.098-0.099,0.145-0.228,0.143-0.356c0.002-0.129-0.045-0.259-0.143-0.356
		C10.352,7.637,10.342,7.64,10.338,7.634z"/>
</g>
</svg>
