<?xml version="1.0" encoding="iso-8859-1"?>
<!-- Generator: Adobe Illustrator 16.0.0, SVG Export Plug-In . SVG Version: 6.00 Build 0)  -->
<!DOCTYPE svg PUBLIC "-//W3C//DTD SVG 1.1//EN" "http://www.w3.org/Graphics/SVG/1.1/DTD/svg11.dtd">

<svg version="1.1" xmlns="http://www.w3.org/2000/svg" xmlns:xlink="http://www.w3.org/1999/xlink" x="0px" y="0px" width="16px" height="16px" viewBox="0 0 16 16" style="enable-background:new 0 0 16 16; fill: #000;" xml:space="preserve">
<g id="_x39_9-interface_-_sidebar_hamburger" style="enable-background: new;">
	<path d="M3.5,4.999h9c0.275,0,0.5-0.225,0.5-0.5c0-0.276-0.225-0.5-0.5-0.5h-9c-0.276,0-0.5,0.224-0.5,0.5
		C3,4.774,3.224,4.999,3.5,4.999z M12.5,11.999h-9c-0.276,0-0.5,0.224-0.5,0.5c0,0.275,0.224,0.5,0.5,0.5h9
		c0.275,0,0.5-0.225,0.5-0.5C13,12.223,12.775,11.999,12.5,11.999z M12.5,7.999h-9c-0.276,0-0.5,0.224-0.5,0.5
		c0,0.275,0.224,0.5,0.5,0.5h9c0.275,0,0.5-0.225,0.5-0.5C13,8.223,12.775,7.999,12.5,7.999z"/>
</g>
</svg>
