<?xml version="1.0" encoding="iso-8859-1"?>
<!-- Generator: Adobe Illustrator 16.0.0, SVG Export Plug-In . SVG Version: 6.00 Build 0)  -->
<!DOCTYPE svg PUBLIC "-//W3C//DTD SVG 1.1//EN" "http://www.w3.org/Graphics/SVG/1.1/DTD/svg11.dtd">

<svg version="1.1" xmlns="http://www.w3.org/2000/svg" xmlns:xlink="http://www.w3.org/1999/xlink" x="0px" y="0px" width="16px" height="16px" viewBox="0 0 16 16" style="enable-background:new 0 0 16 16; fill: #e3e3e3;" xml:space="preserve">
<g id="_x31_0-communication_-_bubble_chat_group_conversation" style="enable-background: new;">
	<path d="M16,12.997v-1.494v-0.006v-1V4.496h-4V3.997v-3.5H0v7v0.999v0.007v1.494h-0.007L0,10.003v0.494h0.493L2.5,12.503
		l2.006-2.006H6v2.999h5.494l2.006,2.007l2.006-2.007H16v-0.493l0.006-0.006H16z M6,9.497H4.006L2.5,11.003L1,9.503V8.496V7.497v-6
		h10v2.5v0.499H6V9.497z M11,5.497v4H7v-4H11z M15,10.497v1v1.006l-1.5,1.5l-1.506-1.506H7v-2h4h1v-1v-4h3V10.497z"/>
</g>
</svg>
