<?xml version="1.0" encoding="iso-8859-1"?>
<!-- Generator: Adobe Illustrator 16.0.0, SVG Export Plug-In . SVG Version: 6.00 Build 0)  -->
<!DOCTYPE svg PUBLIC "-//W3C//DTD SVG 1.1//EN" "http://www.w3.org/Graphics/SVG/1.1/DTD/svg11.dtd">

<svg version="1.1" xmlns="http://www.w3.org/2000/svg" xmlns:xlink="http://www.w3.org/1999/xlink" x="0px" y="0px" width="16px" height="16px" viewBox="0 0 16 16" style="enable-background:new 0 0 16 16; fill: #ddd;" xml:space="preserve">
<g id="_x39_-editorial_-_pen" style="enable-background: new;">
	<path d="M7,14.999v1h9v-1H7z M10.971,4.87l1.025-1.733L6.667,0.133L6.155,1L5.267,0.5L4.378,0L1.303,5.201l0.888,0.5l2.563-4.334
		l0.888,0.5l-5.64,9.535l1.11,0.626l-0.872,2.976l1.776,1.001l2.204-2.225l1.11,0.626l5.275-8.92L10.971,4.87z M2.085,14.889
		l-0.888-0.501l0.729-1.9l1.48,0.834L2.085,14.889z M4.955,13.038l-0.888-0.5h0l-1.324-0.746l0.225,0.127l-0.677-0.382l0.452,0.255
		l-1.34-0.756l4.614-7.802l3.551,2.002L4.955,13.038z M10.082,4.37L6.53,2.368l0.513-0.867l3.551,2.002L10.082,4.37z"/>
</g>
</svg>
