<?xml version="1.0" encoding="iso-8859-1"?>
<!-- Generator: Adobe Illustrator 16.0.0, SVG Export Plug-In . SVG Version: 6.00 Build 0)  -->
<!DOCTYPE svg PUBLIC "-//W3C//DTD SVG 1.1//EN" "http://www.w3.org/Graphics/SVG/1.1/DTD/svg11.dtd">

<svg version="1.1" xmlns="http://www.w3.org/2000/svg" xmlns:xlink="http://www.w3.org/1999/xlink" x="0px" y="0px" width="16px" height="16px" viewBox="0 0 16 16" style="enable-background:new 0 0 16 16; fill: #cc2127;" xml:space="preserve">
<g id="_x38_-logo_-_Pinterest" style="enable-background:new;">
	<path d="M8-0.004c-4.419,0-8.003,3.583-8.003,8.003c0,3.277,1.971,6.093,4.791,7.33c-0.022-0.559-0.004-1.229,0.139-1.838
		c0.154-0.649,1.03-4.36,1.03-4.36S5.701,8.62,5.701,7.864c0-1.186,0.688-2.071,1.543-2.071c0.728,0,1.08,0.547,1.08,1.201
		c0,0.732-0.466,1.826-0.707,2.84c-0.201,0.85,0.425,1.542,1.263,1.542c1.516,0,2.538-1.947,2.538-4.255
		c0-1.754-1.182-3.067-3.331-3.067c-2.427,0-3.939,1.811-3.939,3.833c0,0.697,0.206,1.189,0.527,1.569
		c0.148,0.175,0.169,0.245,0.115,0.446c-0.039,0.147-0.126,0.502-0.163,0.643c-0.053,0.203-0.218,0.275-0.401,0.2
		c-1.118-0.457-1.639-1.681-1.639-3.058c0-2.273,1.917-4.999,5.719-4.999c3.056,0,5.066,2.211,5.066,4.584
		c0,3.14-1.744,5.485-4.316,5.485c-0.865,0-1.678-0.468-1.956-0.998c0,0-0.465,1.844-0.563,2.2
		c-0.169,0.617-0.502,1.233-0.806,1.715c0.72,0.212,1.48,0.327,2.268,0.327c4.42,0,8.002-3.583,8.002-8.003S12.42-0.004,8-0.004z"/>
</g>
</svg>
