<?xml version="1.0" encoding="iso-8859-1"?>
<!-- Generator: Adobe Illustrator 16.0.0, SVG Export Plug-In . SVG Version: 6.00 Build 0)  -->
<!DOCTYPE svg PUBLIC "-//W3C//DTD SVG 1.1//EN" "http://www.w3.org/Graphics/SVG/1.1/DTD/svg11.dtd">

<svg version="1.1" xmlns="http://www.w3.org/2000/svg" xmlns:xlink="http://www.w3.org/1999/xlink" x="0px" y="0px" width="16px" height="16px" viewBox="0 0 16 16" style="enable-background:new 0 0 16 16; fill: #55acee;" xml:space="preserve">
<g id="_x33_-logo_-_Twitter" style="enable-background: new;">
	<path d="M14.5,3.994l1-1.995L14,2.997l-0.293,0.146c-0.596-0.694-1.469-1.144-2.457-1.144C9.455,1.999,8,3.201,8,4.992
		C8,5.235,8.032,5.72,8.083,5.948L8,5.989c0,0-6.5-0.997-7-3.491c0,0-1.5,2.494,1,4.489c0,0-1,0.499-1.5,0c0,0,0,1.496,2.5,2.993
		c0,0-1,0.498-1.5,0c0,0,2,1.994,3,1.994c0,0,0,1.497-4.5,1.497c0,0,5.689,3.739,11-0.499c2.699-2.154,3.357-4.885,3.393-6.943
		C14.455,5.776,14.5,5.515,14.5,5.241c0-0.164,0-0.224,0-0.249L16,3.495L14.5,3.994z"/>
</g>
</svg>
