<?xml version="1.0" encoding="iso-8859-1"?>
<!-- Generator: Adobe Illustrator 16.0.0, SVG Export Plug-In . SVG Version: 6.00 Build 0)  -->
<!DOCTYPE svg PUBLIC "-//W3C//DTD SVG 1.1//EN" "http://www.w3.org/Graphics/SVG/1.1/DTD/svg11.dtd">

<svg version="1.1" xmlns="http://www.w3.org/2000/svg" xmlns:xlink="http://www.w3.org/1999/xlink" x="0px" y="0px" width="16px" height="16px" viewBox="0 0 16 16" style="enable-background:new 0 0 16 16; fill: #1ab7ea;" xml:space="preserve">
<g id="_x31_0-logo_-_Vimeo" style="enable-background:new;">
	<path d="M15.701,1.691c-0.994-1.182-2.729-0.552-3.531,0c-0.42,0.157-2.377,1.729-3.027,2.517c-0.649,0.787,1.17,0.622,1.514,0.504
		s1.834,0.243,0.504,2.013C9.646,8.738,9.646,8.738,8.638,9.745c-0.504,0.503-1.284-0.21-1.513-1.51
		c-0.229-1.3-0.046-5.726-0.504-6.041C6.047,1.132,4.606,1.798,4.606,1.798c-0.344,0.276-4.039,2.41-4.543,3.417
		c-0.408,0.814,1.062,0.729,1.513,0.503C2.585,5.215,3.09,4.712,3.09,6.222c0,0.869,0.207,6.715,1.009,8.054
		s3.257,0.416,3.257,0.416s6.328-4.946,7.839-8.47C16.084,4.152,16.205,2.698,15.701,1.691z"/>
</g>
</svg>
