<?xml version="1.0" encoding="iso-8859-1"?>
<!-- Generator: Adobe Illustrator 16.0.0, SVG Export Plug-In . SVG Version: 6.00 Build 0)  -->
<!DOCTYPE svg PUBLIC "-//W3C//DTD SVG 1.1//EN" "http://www.w3.org/Graphics/SVG/1.1/DTD/svg11.dtd">

<svg version="1.1" xmlns="http://www.w3.org/2000/svg" xmlns:xlink="http://www.w3.org/1999/xlink" x="0px" y="0px" width="16px" height="16px" viewBox="0 0 16 16" style="enable-background:new 0 0 16 16; fill: #ea4c89;" xml:space="preserve">
<g id="_x36_-logo_-_dribbble" style="enable-background: new;">
	<path style="fill-rule:evenodd;clip-rule:evenodd;" d="M8.5,0.999c-4.142,0-7.5,3.358-7.5,7.5c0,4.143,3.358,7.5,7.5,7.5
		c4.143,0,7.5-3.357,7.5-7.5C16,4.357,12.643,0.999,8.5,0.999z M14.488,8.378c-1.592-0.406-2.984-0.479-4.191-0.325
		c-0.203-0.47-0.424-0.95-0.676-1.442c1.072-0.496,2.229-1.144,3.463-1.979C13.941,5.647,14.459,6.952,14.488,8.378z M8.5,2.499
		c1.395,0,2.676,0.48,3.696,1.279c-0.469,0.405-1.492,1.189-3.063,1.931C8.558,4.694,7.881,3.665,7.072,2.677
		C7.53,2.565,8.006,2.499,8.5,2.499z M5.942,3.078c0.456,0.619,1.21,1.712,2.007,3.125c-1.732,0.621-3.74,0.884-5.263,0.87
		C3.12,5.304,4.328,3.841,5.942,3.078z M2.5,8.499c0-0.116,0.019-0.229,0.025-0.344c1.141,0.091,3.193,0.009,5.917-1.044
		C8.639,7.489,8.833,7.898,9.025,8.31c-2.89,0.818-4.498,2.91-5.157,4.004C3.014,11.276,2.5,9.948,2.5,8.499z M8.5,14.499
		c-1.435,0-2.752-0.505-3.784-1.346c1.322-2.241,3.073-3.335,4.763-3.804c0.598,1.429,1.125,2.991,1.426,4.645
		C10.168,14.317,9.355,14.499,8.5,14.499z M11.979,13.381c-0.076-0.431-0.414-2.121-1.246-4.275
		c1.582-0.192,2.969,0.049,3.703,0.232C14.201,11.003,13.287,12.447,11.979,13.381z"/>
</g>
</svg>
