<?xml version="1.0" encoding="iso-8859-1"?>
<!-- Generator: Adobe Illustrator 16.0.0, SVG Export Plug-In . SVG Version: 6.00 Build 0)  -->
<!DOCTYPE svg PUBLIC "-//W3C//DTD SVG 1.1//EN" "http://www.w3.org/Graphics/SVG/1.1/DTD/svg11.dtd">

<svg version="1.1" xmlns="http://www.w3.org/2000/svg" xmlns:xlink="http://www.w3.org/1999/xlink" x="0px" y="0px" width="16px" height="16px" viewBox="0 0 16 16" style="enable-background:new 0 0 16 16; fill: #0976b4;" xml:space="preserve">
<g id="_x31_2-logo_-_LinkedIn" style="enable-background:new    ;">
	<path style="fill-rule:evenodd;clip-rule:evenodd;" d="M13.666,0.999H2.333C1.597,0.999,1,1.597,1,2.333v11.333
		c0,0.736,0.597,1.333,1.333,1.333h11.333c0.736,0,1.334-0.597,1.334-1.333V2.333C15,1.597,14.402,0.999,13.666,0.999z M4.45,3.995
		c0.575,0,0.929,0.429,0.939,0.991c0,0.552-0.365,0.992-0.951,0.992H4.428c-0.564,0-0.928-0.44-0.928-0.992
		C3.5,4.424,3.875,3.995,4.45,3.995z M5.496,12.503H3.599V6.599h1.897V12.503z M12.994,12.503h-1.963v-3.05
		c0-0.766-0.223-1.289-0.932-1.289c-0.543,0-0.867,0.353-1.008,0.693C9.039,8.979,9.027,9.148,9.027,9.319v3.184H7.001
		c0,0,0.026-5.328,0-5.862h2.026v0.81c0.26-0.388,0.723-0.943,1.77-0.943c1.291,0,2.197,0.976,2.197,2.728V12.503z M9.027,7.467
		V7.45c-0.004,0.005-0.01,0.011-0.014,0.017H9.027z"/>
</g>
</svg>
