<?xml version="1.0" encoding="iso-8859-1"?>
<!-- Generator: Adobe Illustrator 16.0.0, SVG Export Plug-In . SVG Version: 6.00 Build 0)  -->
<!DOCTYPE svg PUBLIC "-//W3C//DTD SVG 1.1//EN" "http://www.w3.org/Graphics/SVG/1.1/DTD/svg11.dtd">

<svg version="1.1" xmlns="http://www.w3.org/2000/svg" xmlns:xlink="http://www.w3.org/1999/xlink" x="0px" y="0px" width="16px" height="16px" viewBox="0 0 16 16" style="enable-background:new 0 0 16 16; fill: #3f729b;" xml:space="preserve">
<g id="_x35_-logo_-_Instagram" style="enable-background:new;">
	<path style="fill-rule:evenodd;clip-rule:evenodd;" d="M13.5,0h-9C3.119,0,2,1.12,2,2.5v11C2,14.881,3.119,16,4.5,16h9
		c1.381,0,2.5-1.119,2.5-2.5v-11C16,1.12,14.881,0,13.5,0z M12,2h2v2h-2V2z M9,3.997c2.205,0,3.994,1.792,3.994,4
		c0,2.21-1.789,4.001-3.994,4.001c-2.207,0-3.996-1.791-3.996-4.001C5.004,5.789,6.793,3.997,9,3.997z M15,13c0,1.104-0.896,2-2,2H5
		c-1.104,0-2-0.896-2-2V9H2.999V7h1.076C4.04,7.247,4.002,7.494,4.002,7.751c0,2.897,2.238,5.247,4.998,5.247
		c2.76,0,4.998-2.35,4.998-5.247c0-0.257-0.037-0.504-0.072-0.751h1.072v1.98C14.998,8.987,15,8.993,15,9V13z"/>
</g>
</svg>
